<svg width="16" height="12" viewBox="0 0 16 12" fill="none" xmlns="http://www.w3.org/2000/svg">
<g id="bxs:up-arrow">
<path id="Vector" d="M13.9999 2.49994L1.99994 2.49994C1.87845 2.50023 1.75936 2.52536 1.65549 2.57263C1.55163 2.61991 1.46692 2.68753 1.41048 2.76822C1.35404 2.84892 1.32802 2.93963 1.33521 3.03059C1.3424 3.12155 1.38253 3.20932 1.45128 3.28445L7.45128 9.78445C7.69994 10.0539 8.29861 10.0539 8.54794 9.78445L14.5479 3.28445C14.6174 3.20947 14.6581 3.12166 14.6657 3.03055C14.6733 2.93943 14.6474 2.84851 14.5909 2.76764C14.5344 2.68678 14.4495 2.61907 14.3453 2.57187C14.2411 2.52468 14.1217 2.4998 13.9999 2.49994Z" fill="#1E1E1E" fill-opacity="0.55"/>
</g>
</svg>
